<svg xmlns="http://www.w3.org/2000/svg" id="icon-eye" viewBox="0 0 29 32"><path fill="#fff" style="fill:var(--color1,#fff)" d="M7.841 26.572c3.801 2.087 9.794-1.01 13.387-6.918s3.424-12.388-.376-14.476c-3.801-2.087-9.795 1.01-13.387 6.917s-3.424 12.389.376 14.476z"/><path style="fill:var(--color2,#000)" d="M20.56 5.658c3.457 1.899 3.533 8.181.164 13.72s-9.134 8.614-12.592 6.715c-3.457-1.899-3.533-8.181-.164-13.721S17.106 3.76 20.56 5.657zm.583-.958c-4.078-2.24-10.428.948-14.182 7.12-3.753 6.172-3.489 12.992.589 15.232s10.428-.948 14.182-7.12c3.754-6.172 3.494-12.99-.589-15.231z"/><path style="fill:var(--color2,#000)" d="M11.142 21.144c2.132 1.171 5.469-.524 7.453-3.787s1.864-6.856-.268-8.027c-2.132-1.171-5.469.525-7.453 3.787s-1.864 6.856.268 8.027z"/><path style="fill:var(--color2,#000)" d="M18.229 9.49c2.038 1.119 2.125 4.605.197 7.775s-5.15 4.838-7.188 3.719c-2.037-1.119-2.125-4.604-.197-7.775s5.154-4.837 7.188-3.719zm.195-.32c-2.226-1.222-5.681.505-7.718 3.854s-1.887 7.057.339 8.279c2.226 1.223 5.681-.505 7.718-3.854s1.887-7.057-.339-8.279z"/><path fill="#fff" style="fill:var(--color1,#fff)" d="M15.715 16.628c1.283.705 3.106-.011 4.071-1.598s.708-3.445-.575-4.15c-1.283-.705-3.106.011-4.071 1.598s-.708 3.445.576 4.15z"/></svg>