<svg xmlns="http://www.w3.org/2000/svg" width="127" height="122" fill="none"><g clip-path="url(#a)">
<path fill="green" d="M45.944 62.719c4.576 2.645 11.785-1.28 16.103-8.766 4.317-7.487 4.107-15.7-.469-18.345-4.576-2.645-11.785 1.28-16.103 8.766-4.317 7.487-4.107 15.7.47 18.345Z"/>
<path fill="red" d="M61.228 36.215c4.163 2.406 4.26 10.367.212 17.387s-10.983 10.916-15.146 8.51c-4.163-2.407-4.26-10.367-.212-17.387s10.987-10.914 15.146-8.51Zm.7-1.214c-4.91-2.838-12.548 1.201-17.059 9.023-4.51 7.822-4.186 16.463.725 19.302 4.91 2.838 12.548-1.201 17.059-9.023 4.51-7.822 4.19-16.461-.725-19.302Z"/>
<path fill="#fff" d="M73.83 78.838c4.577 2.645 11.786-1.28 16.103-8.766 4.318-7.486 4.108-15.7-.468-18.344-4.576-2.645-11.786 1.28-16.103 8.766-4.317 7.486-4.107 15.7.469 18.344Z"/>
<path fill="yellow" d="M89.115 52.335c4.163 2.406 4.261 10.366.213 17.387-4.049 7.02-10.984 10.916-15.147 8.51-4.163-2.407-4.26-10.367-.212-17.388 4.048-7.02 10.987-10.913 15.146-8.51Zm.7-1.214c-4.91-2.839-12.548 1.2-17.059 9.023-4.51 7.821-4.186 16.463.725 19.301 4.911 2.839 12.549-1.2 17.059-9.022 4.51-7.822 4.19-16.462-.725-19.302ZM49.91 55.84c2.568 1.484 6.582-.665 8.966-4.8 2.384-4.133 2.236-8.688-.331-10.172-2.568-1.483-6.581.665-8.965 4.8-2.384 4.134-2.236 8.688.33 10.172Z"/>
<path fill="#000" d="M58.428 41.07c2.454 1.419 2.563 5.836.246 9.854-2.317 4.018-6.193 6.132-8.646 4.714-2.453-1.419-2.563-5.836-.246-9.854 2.317-4.018 6.197-6.13 8.646-4.713Zm.234-.404c-2.68-1.549-6.836.64-9.284 4.885-2.448 4.244-2.263 8.942.416 10.491 2.68 1.549 6.836-.64 9.284-4.885 2.448-4.244 2.263-8.942-.416-10.491ZM77.799 71.96c2.567 1.483 6.58-.665 8.964-4.8 2.384-4.134 2.236-8.688-.33-10.172-2.568-1.484-6.582.665-8.966 4.799-2.384 4.134-2.236 8.689.332 10.172Z"/>
<path fill="orange" d="M86.316 57.19c2.453 1.418 2.562 5.836.245 9.853-2.317 4.018-6.193 6.132-8.646 4.714-2.453-1.418-2.563-5.835-.246-9.853 2.318-4.018 6.197-6.13 8.647-4.714Zm.233-.404c-2.68-1.55-6.836.64-9.284 4.884-2.448 4.245-2.263 8.943.417 10.492 2.68 1.549 6.835-.64 9.283-4.885 2.448-4.245 2.263-8.943-.416-10.491Z"/>
<path fill="blue" d="M55.41 50.116c1.545.893 3.737-.013 4.897-2.025 1.16-2.011.848-4.365-.697-5.258-1.544-.893-3.737.014-4.897 2.025-1.16 2.011-.848 4.366.697 5.258ZM83.297 66.236c1.545.893 3.737-.014 4.897-2.025 1.16-2.012.848-4.366-.696-5.259-1.545-.892-3.738.014-4.897 2.025-1.16 2.012-.848 4.366.696 5.259Z"/>
<path fill="#000" d="M57.705 25.055a16.822 16.822 0 0 1 12.72 7.352c1.008 1.484 3.447.105 2.433-1.388-3.499-5.157-8.952-8.325-15.169-8.768-1.794-.13-1.775 2.676.016 2.804ZM86.805 41.875a16.822 16.822 0 0 1 12.72 7.352c1.008 1.484 3.447.105 2.433-1.388-3.499-5.156-8.952-8.325-15.169-8.767-1.794-.131-1.774 2.675.016 2.803Z"/>
<path stroke="#000" stroke-miterlimit="10" stroke-width="1.679" d="M49.706 88.901C28.834 76.838 17.766 56.915 24.983 44.4M100.564 88.085c-7.218 12.516-29.986 12.881-50.857.817M19.954 42.84l10.525 2.308M97.68 85.61l6 4.547"/></g><defs><clipPath id="a"><path fill="#fff" d="m39.13.545 87.84 52.189-38.584 68.771L.546 69.317z"/></clipPath></defs></svg>