<!-- <svg xmlns="http://www.w3.org/2000/svg" width="81" height="78" fill="none"><path fill="#FCFCFC" d="M29.077 40.008c2.882 1.688 7.421-.818 10.139-5.598 2.717-4.78 2.584-10.023-.297-11.712-2.882-1.689-7.42.817-10.139 5.597-2.717 4.78-2.584 10.024.297 11.712Z"/><path fill="#131313" d="M38.699 23.084c2.622 1.537 2.684 6.62.136 11.102-2.549 4.482-6.915 6.97-9.537 5.433-2.621-1.536-2.684-6.619-.135-11.101 2.548-4.483 6.917-6.968 9.536-5.434Zm.44-.775c-3.092-1.812-7.9.767-10.74 5.761-2.84 4.995-2.634 10.512.459 12.324 3.092 1.813 7.9-.767 10.74-5.76 2.84-4.995 2.636-10.51-.459-12.325Z"/><path fill="#131313" d="M31.57 35.615c1.617.947 4.144-.425 5.645-3.064 1.5-2.64 1.407-5.548-.21-6.495-1.616-.948-4.144.424-5.644 3.064-1.501 2.64-1.407 5.548.21 6.495Z"/><path fill="#131313" d="M36.933 26.185c1.545.905 1.614 3.726.155 6.291-1.458 2.566-3.898 3.915-5.443 3.01-1.545-.906-1.615-3.726-.156-6.291 1.459-2.566 3.901-3.914 5.444-3.01Zm.147-.258c-1.688-.99-4.305.408-5.845 3.118-1.541 2.71-1.425 5.71.263 6.699 1.687.989 4.304-.409 5.845-3.119 1.54-2.71 1.424-5.71-.263-6.698Z"/><path fill="#FCFCFC" d="M35.032 31.96c.973.57 2.353-.008 3.084-1.292.73-1.284.533-2.787-.44-3.357-.972-.57-2.353.008-3.083 1.293-.73 1.284-.533 2.787.44 3.357Z"/></svg> -->

<svg xmlns="http://www.w3.org/2000/svg" id="icon-eye" viewBox="0 0 29 32"><path fill="#fff" style="fill:var(--color1,#fff)" d="M7.841 26.572c3.801 2.087 9.794-1.01 13.387-6.918s3.424-12.388-.376-14.476c-3.801-2.087-9.795 1.01-13.387 6.917s-3.424 12.389.376 14.476z"></path><path style="fill:var(--color2,#000)" d="M20.56 5.658c3.457 1.899 3.533 8.181.164 13.72s-9.134 8.614-12.592 6.715c-3.457-1.899-3.533-8.181-.164-13.721S17.106 3.76 20.56 5.657zm.583-.958c-4.078-2.24-10.428.948-14.182 7.12-3.753 6.172-3.489 12.992.589 15.232s10.428-.948 14.182-7.12c3.754-6.172 3.494-12.99-.589-15.231z"></path><path style="fill:var(--color2,#000)" d="M11.142 21.144c2.132 1.171 5.469-.524 7.453-3.787s1.864-6.856-.268-8.027c-2.132-1.171-5.469.525-7.453 3.787s-1.864 6.856.268 8.027z"></path><path style="fill:var(--color2,#000)" d="M18.229 9.49c2.038 1.119 2.125 4.605.197 7.775s-5.15 4.838-7.188 3.719c-2.037-1.119-2.125-4.604-.197-7.775s5.154-4.837 7.188-3.719zm.195-.32c-2.226-1.222-5.681.505-7.718 3.854s-1.887 7.057.339 8.279c2.226 1.223 5.681-.505 7.718-3.854s1.887-7.057-.339-8.279z"></path><path fill="#fff" style="fill:var(--color1,#fff)" d="M15.715 16.628c1.283.705 3.106-.011 4.071-1.598s.708-3.445-.575-4.15c-1.283-.705-3.106.011-4.071 1.598s-.708 3.445.576 4.15z"></path></svg>